<mxfile host="Electron" modified="2023-04-10T16:08:18.727Z" agent="Mozilla/5.0 (Windows NT 10.0; Win64; x64) AppleWebKit/537.36 (KHTML, like Gecko) draw.io/21.1.2 Chrome/106.0.5249.199 Electron/21.4.3 Safari/537.36" etag="1THBkKFkwbCuIFcVBBxL" version="21.1.2" type="device">
  <diagram name="Page-1" id="7BYbK6KzowMNJJfhIsLm">
    <mxGraphModel dx="1434" dy="844" grid="1" gridSize="10" guides="1" tooltips="1" connect="1" arrows="1" fold="1" page="1" pageScale="1" pageWidth="850" pageHeight="1100" math="0" shadow="0">
      <root>
        <mxCell id="0" />
        <mxCell id="1" parent="0" />
        <mxCell id="vcjEMFyI4bFxWv6ZDm3t-45" style="rounded=0;orthogonalLoop=1;jettySize=auto;html=1;exitX=1;exitY=0.5;exitDx=0;exitDy=0;entryX=0;entryY=0.5;entryDx=0;entryDy=0;strokeWidth=2;endArrow=classic;endFill=1;" edge="1" parent="1" source="vcjEMFyI4bFxWv6ZDm3t-44" target="vcjEMFyI4bFxWv6ZDm3t-3">
          <mxGeometry relative="1" as="geometry" />
        </mxCell>
        <mxCell id="vcjEMFyI4bFxWv6ZDm3t-44" value="" style="rounded=0;whiteSpace=wrap;html=1;strokeColor=none;fillColor=none;" vertex="1" parent="1">
          <mxGeometry x="120" y="440" width="80" height="120" as="geometry" />
        </mxCell>
        <mxCell id="vcjEMFyI4bFxWv6ZDm3t-1" value="Пользователь" style="shape=umlActor;verticalLabelPosition=bottom;verticalAlign=top;html=1;outlineConnect=0;strokeWidth=2;" vertex="1" parent="1">
          <mxGeometry x="145" y="470" width="30" height="60" as="geometry" />
        </mxCell>
        <mxCell id="vcjEMFyI4bFxWv6ZDm3t-10" style="edgeStyle=orthogonalEdgeStyle;rounded=0;orthogonalLoop=1;jettySize=auto;html=1;exitX=1;exitY=0.25;exitDx=0;exitDy=0;entryX=0;entryY=0.25;entryDx=0;entryDy=0;strokeWidth=2;endArrow=classic;endFill=1;" edge="1" parent="1" source="vcjEMFyI4bFxWv6ZDm3t-3" target="vcjEMFyI4bFxWv6ZDm3t-4">
          <mxGeometry relative="1" as="geometry" />
        </mxCell>
        <mxCell id="vcjEMFyI4bFxWv6ZDm3t-51" style="rounded=0;orthogonalLoop=1;jettySize=auto;html=1;exitX=0.5;exitY=1;exitDx=0;exitDy=0;dashed=1;strokeWidth=2;endArrow=none;endFill=0;" edge="1" parent="1" source="vcjEMFyI4bFxWv6ZDm3t-3">
          <mxGeometry relative="1" as="geometry">
            <mxPoint x="259" y="800" as="targetPoint" />
          </mxGeometry>
        </mxCell>
        <mxCell id="vcjEMFyI4bFxWv6ZDm3t-3" value="" style="rounded=0;whiteSpace=wrap;html=1;strokeWidth=2;fillColor=default;strokeColor=#000000;" vertex="1" parent="1">
          <mxGeometry x="254.06" y="240" width="10" height="520" as="geometry" />
        </mxCell>
        <mxCell id="vcjEMFyI4bFxWv6ZDm3t-11" style="rounded=0;orthogonalLoop=1;jettySize=auto;html=1;exitX=1;exitY=0.25;exitDx=0;exitDy=0;entryX=0;entryY=0;entryDx=0;entryDy=135;entryPerimeter=0;strokeWidth=2;endArrow=classic;endFill=1;" edge="1" parent="1" source="vcjEMFyI4bFxWv6ZDm3t-4" target="vcjEMFyI4bFxWv6ZDm3t-7">
          <mxGeometry relative="1" as="geometry" />
        </mxCell>
        <mxCell id="vcjEMFyI4bFxWv6ZDm3t-15" style="rounded=0;orthogonalLoop=1;jettySize=auto;html=1;exitX=1;exitY=0.5;exitDx=0;exitDy=0;entryX=0;entryY=0.5;entryDx=0;entryDy=0;entryPerimeter=0;strokeWidth=2;endArrow=classic;endFill=1;" edge="1" parent="1" source="vcjEMFyI4bFxWv6ZDm3t-4" target="vcjEMFyI4bFxWv6ZDm3t-7">
          <mxGeometry relative="1" as="geometry" />
        </mxCell>
        <mxCell id="vcjEMFyI4bFxWv6ZDm3t-37" style="rounded=0;orthogonalLoop=1;jettySize=auto;html=1;strokeWidth=2;endArrow=classic;endFill=1;entryX=1.094;entryY=0.671;entryDx=0;entryDy=0;entryPerimeter=0;" edge="1" parent="1" target="vcjEMFyI4bFxWv6ZDm3t-3">
          <mxGeometry relative="1" as="geometry">
            <mxPoint x="500" y="380" as="sourcePoint" />
            <mxPoint x="259" y="590" as="targetPoint" />
          </mxGeometry>
        </mxCell>
        <mxCell id="vcjEMFyI4bFxWv6ZDm3t-38" style="rounded=0;orthogonalLoop=1;jettySize=auto;html=1;exitX=0;exitY=0.5;exitDx=0;exitDy=0;strokeWidth=2;endArrow=classic;endFill=1;" edge="1" parent="1" source="vcjEMFyI4bFxWv6ZDm3t-4">
          <mxGeometry relative="1" as="geometry">
            <mxPoint x="260" y="610" as="targetPoint" />
          </mxGeometry>
        </mxCell>
        <mxCell id="vcjEMFyI4bFxWv6ZDm3t-39" style="rounded=0;orthogonalLoop=1;jettySize=auto;html=1;exitX=0;exitY=0.75;exitDx=0;exitDy=0;strokeWidth=2;endArrow=classic;endFill=1;" edge="1" parent="1" source="vcjEMFyI4bFxWv6ZDm3t-4">
          <mxGeometry relative="1" as="geometry">
            <mxPoint x="260" y="630" as="targetPoint" />
          </mxGeometry>
        </mxCell>
        <mxCell id="vcjEMFyI4bFxWv6ZDm3t-49" style="edgeStyle=orthogonalEdgeStyle;rounded=0;orthogonalLoop=1;jettySize=auto;html=1;exitX=0.5;exitY=1;exitDx=0;exitDy=0;strokeWidth=2;dashed=1;endArrow=none;endFill=0;" edge="1" parent="1" source="vcjEMFyI4bFxWv6ZDm3t-4">
          <mxGeometry relative="1" as="geometry">
            <mxPoint x="499" y="800" as="targetPoint" />
          </mxGeometry>
        </mxCell>
        <mxCell id="vcjEMFyI4bFxWv6ZDm3t-4" value="" style="rounded=0;whiteSpace=wrap;html=1;strokeWidth=2;fillColor=default;strokeColor=#000000;" vertex="1" parent="1">
          <mxGeometry x="494.05" y="240" width="10" height="520" as="geometry" />
        </mxCell>
        <mxCell id="vcjEMFyI4bFxWv6ZDm3t-46" style="rounded=0;orthogonalLoop=1;jettySize=auto;html=1;exitX=0.5;exitY=1;exitDx=0;exitDy=0;entryX=0.5;entryY=0;entryDx=0;entryDy=0;dashed=1;strokeWidth=2;endArrow=none;endFill=0;" edge="1" parent="1" source="vcjEMFyI4bFxWv6ZDm3t-5" target="vcjEMFyI4bFxWv6ZDm3t-3">
          <mxGeometry relative="1" as="geometry" />
        </mxCell>
        <mxCell id="vcjEMFyI4bFxWv6ZDm3t-5" value="FRONENT LAYER&lt;br&gt;(React Native)" style="rounded=0;whiteSpace=wrap;html=1;strokeWidth=2;" vertex="1" parent="1">
          <mxGeometry x="200" y="120" width="118.11" height="78.74" as="geometry" />
        </mxCell>
        <mxCell id="vcjEMFyI4bFxWv6ZDm3t-47" style="rounded=0;orthogonalLoop=1;jettySize=auto;html=1;exitX=0.5;exitY=1;exitDx=0;exitDy=0;entryX=0.5;entryY=0;entryDx=0;entryDy=0;dashed=1;strokeWidth=2;endArrow=none;endFill=0;" edge="1" parent="1" source="vcjEMFyI4bFxWv6ZDm3t-6" target="vcjEMFyI4bFxWv6ZDm3t-4">
          <mxGeometry relative="1" as="geometry" />
        </mxCell>
        <mxCell id="vcjEMFyI4bFxWv6ZDm3t-6" value="BACKEND LAYER&lt;br&gt;(NestJS)" style="rounded=0;whiteSpace=wrap;html=1;strokeWidth=2;" vertex="1" parent="1">
          <mxGeometry x="440" y="120" width="118.11" height="78.74" as="geometry" />
        </mxCell>
        <mxCell id="vcjEMFyI4bFxWv6ZDm3t-12" style="rounded=0;orthogonalLoop=1;jettySize=auto;html=1;exitX=-0.012;exitY=0.283;exitDx=0;exitDy=0;exitPerimeter=0;strokeWidth=2;endArrow=classic;endFill=1;" edge="1" parent="1" source="vcjEMFyI4bFxWv6ZDm3t-7">
          <mxGeometry relative="1" as="geometry">
            <mxPoint x="500" y="490" as="targetPoint" />
          </mxGeometry>
        </mxCell>
        <mxCell id="vcjEMFyI4bFxWv6ZDm3t-19" style="rounded=0;orthogonalLoop=1;jettySize=auto;html=1;exitX=-0.012;exitY=0.523;exitDx=0;exitDy=0;exitPerimeter=0;entryX=1;entryY=0.75;entryDx=0;entryDy=0;strokeWidth=2;endArrow=classic;endFill=1;" edge="1" parent="1" source="vcjEMFyI4bFxWv6ZDm3t-7" target="vcjEMFyI4bFxWv6ZDm3t-4">
          <mxGeometry relative="1" as="geometry" />
        </mxCell>
        <mxCell id="vcjEMFyI4bFxWv6ZDm3t-7" value="MySQL" style="shape=cylinder3;whiteSpace=wrap;html=1;boundedLbl=1;backgroundOutline=1;size=15;strokeWidth=2;" vertex="1" parent="1">
          <mxGeometry x="720" y="240" width="80" height="520" as="geometry" />
        </mxCell>
        <mxCell id="vcjEMFyI4bFxWv6ZDm3t-22" value="Запрос данных" style="text;html=1;align=center;verticalAlign=middle;resizable=0;points=[];autosize=1;strokeColor=none;fillColor=none;" vertex="1" parent="1">
          <mxGeometry x="318.11" y="340" width="110" height="30" as="geometry" />
        </mxCell>
        <mxCell id="vcjEMFyI4bFxWv6ZDm3t-25" value="200 - успешный запрос&lt;br&gt;201 - данные созданы&lt;br&gt;404 - не существует&lt;br&gt;409 - конфликт в БД&lt;br&gt;500 - ошибка сервера" style="text;html=1;align=left;verticalAlign=middle;resizable=0;points=[];autosize=1;strokeColor=none;fillColor=none;" vertex="1" parent="1">
          <mxGeometry x="310" y="630" width="150" height="90" as="geometry" />
        </mxCell>
        <mxCell id="vcjEMFyI4bFxWv6ZDm3t-32" value="400 - не верно указаны&lt;br&gt;данные в теле запроса" style="text;html=1;align=center;verticalAlign=middle;resizable=0;points=[];autosize=1;strokeColor=none;fillColor=none;" vertex="1" parent="1">
          <mxGeometry x="264.06" y="430" width="150" height="40" as="geometry" />
        </mxCell>
        <mxCell id="vcjEMFyI4bFxWv6ZDm3t-33" value="Проверка токена доступа (SQL)" style="text;html=1;align=center;verticalAlign=middle;resizable=0;points=[];autosize=1;strokeColor=none;fillColor=none;" vertex="1" parent="1">
          <mxGeometry x="504.05" y="340" width="200" height="30" as="geometry" />
        </mxCell>
        <mxCell id="vcjEMFyI4bFxWv6ZDm3t-40" value="Запрос данных (SQL)" style="text;html=1;align=center;verticalAlign=middle;resizable=0;points=[];autosize=1;strokeColor=none;fillColor=none;" vertex="1" parent="1">
          <mxGeometry x="565" y="470" width="140" height="30" as="geometry" />
        </mxCell>
        <mxCell id="vcjEMFyI4bFxWv6ZDm3t-43" value="401 - не&lt;br&gt;авторизован" style="text;html=1;align=center;verticalAlign=middle;resizable=0;points=[];autosize=1;strokeColor=none;fillColor=none;" vertex="1" parent="1">
          <mxGeometry x="380" y="480" width="90" height="40" as="geometry" />
        </mxCell>
      </root>
    </mxGraphModel>
  </diagram>
</mxfile>
